PathFileType	4	(X/Y/Z)	C:/Users/opensim2020/Desktop/walking_exp_matlab/subject03_walking06_straight_01.trc	
DataRate	CameraRate	NumFrames	NumMarkers	Units	OrigDataRate	OrigDataStartFrame	OrigNumFrames	
100.00	100.00	4	44	mm	100.00	488	362	
Frame#	Time	LFHD			RFHD			LBHD			RBHD			C7			T10			CLAV			STRN			RBAK			LSHO			LUPA			LELB			LFRM			LWRA			LWRB			LFIN			RSHO			RUPA			RELB			RFRM			RWRA			RWRB			RFIN			LASI			RASI			LPSI			RPSI			LTHI			LKNE			LTIB			LANK			LHEE			LTOE			RTHI			RKNE			RTIB			RANK			RHEE			RTOE			*39			*40			*41			*42			*43			
		X1	Y1	Z1	X2	Y2	Z2	X3	Y3	Z3	X4	Y4	Z4	X5	Y5	Z5	X6	Y6	Z6	X7	Y7	Z7	X8	Y8	Z8	X9	Y9	Z9	X10	Y10	Z10	X11	Y11	Z11	X12	Y12	Z12	X13	Y13	Z13	X14	Y14	Z14	X15	Y15	Z15	X16	Y16	Z16	X17	Y17	Z17	X18	Y18	Z18	X19	Y19	Z19	X20	Y20	Z20	X21	Y21	Z21	X22	Y22	Z22	X23	Y23	Z23	X24	Y24	Z24	X25	Y25	Z25	X26	Y26	Z26	X27	Y27	Z27	X28	Y28	Z28	X29	Y29	Z29	X30	Y30	Z30	X31	Y31	Z31	X32	Y32	Z32	X33	Y33	Z33	X34	Y34	Z34	X35	Y35	Z35	X36	Y36	Z36	X37	Y37	Z37	X38	Y38	Z38	X39	Y39	Z39	X40	Y40	Z40	X41	Y41	Z41	X42	Y42	Z42	X43	Y43	Z43	X44	Y44	Z44	

46	0.450	1340.15576	-1197.46851	1607.71289	1470.77112	-1220.45203	1607.94519	1319.96960	-1329.47229	1584.40674	1449.57996	-1348.17859	1583.87195	1368.68127	-1386.87878	1420.72754	1381.54358	-1449.90125	1112.90881	1381.00366	-1270.87476	1336.06116	1382.93750	-1239.60327	1167.58093	1464.56543	-1461.44934	1251.95959	1223.09656	-1301.64355	1372.02930	1150.26685	-1281.20129	1179.16931	1146.14209	-1248.76294	1059.89709	1171.71265	-1188.41016	947.77692	1224.90601	-1145.58728	846.83490	1169.75452	-1151.26404	839.76642	1196.25818	-1109.28113	772.26874	1535.61780	-1331.25317	1367.92676	1615.15405	-1349.05884	1149.15234	1634.08337	-1339.41602	1038.10498	1639.84509	-1321.82300	901.88013	1608.97839	-1288.35278	807.30060	1649.84290	-1322.73486	801.79572	1644.52148	-1294.85559	732.62372	1275.68408	-1308.01575	927.39990	1511.68750	-1306.00806	938.50537	1327.50500	-1464.85571	973.68335	1475.08569	-1462.59741	980.55316	1251.46265	-1417.85840	637.76093	1298.16406	-1444.70398	465.81381	1302.32117	-1522.62964	284.95679	1345.80518	-1553.04675	74.71564	1386.77698	-1595.09131	41.94812	1368.63330	-1403.98108	34.56170	1570.51062	-1302.33508	653.65790	1534.22583	-1228.14087	490.13727	1545.72888	-1246.63684	301.71539	1510.05115	-1249.45056	84.08833	1459.31714	-1291.37231	46.04428	1492.90820	-1110.43164	55.83431															 
47	0.460	1340.71545	-1191.50793	1606.74268	1471.46741	-1214.82056	1606.92957	1320.49438	-1323.55688	1583.31213	1450.11243	-1342.37354	1582.63013	1369.05750	-1381.16821	1419.86902	1381.56262	-1444.67395	1112.11499	1381.52930	-1265.28406	1334.97913	1383.54968	-1234.20996	1166.50122	1464.53552	-1456.15674	1251.08533	1223.74634	-1295.43604	1371.13049	1150.40674	-1273.71802	1178.99194	1145.80286	-1239.53479	1060.31311	1170.95471	-1177.20190	949.35828	1224.23047	-1131.99548	849.38214	1169.05933	-1138.18420	841.95953	1195.36914	-1094.66467	775.28424	1536.02295	-1326.01746	1366.71960	1615.12805	-1344.57471	1147.93164	1634.10754	-1335.37073	1036.76025	1639.99573	-1319.15417	900.46484	1609.24207	-1286.37964	805.40143	1650.06470	-1320.96375	800.41974	1644.77612	-1294.20459	730.83954	1275.74719	-1302.24683	926.74323	1511.99487	-1300.98132	937.43341	1327.22986	-1459.33350	972.58813	1474.84644	-1457.68677	979.11450	1251.44495	-1412.80310	637.28082	1297.84509	-1441.14526	465.53833	1302.08557	-1520.48853	285.20480	1346.23535	-1553.33716	75.03000	1386.85852	-1595.05518	42.95667	1368.75928	-1403.72815	34.54524	1569.92847	-1297.52747	652.34369	1533.33801	-1221.92896	489.37296	1544.66431	-1235.67712	300.90640	1508.64148	-1231.70313	83.29552	1457.58716	-1272.18982	44.07098	1491.73669	-1091.69226	58.84877															 
48	0.470	1341.56482	-1185.60144	1605.65869	1472.01514	-1208.83911	1605.77734	1321.10620	-1317.61035	1582.18652	1450.71667	-1336.46960	1581.35071	1369.49915	-1375.36169	1418.94910	1381.62732	-1439.31042	1111.24280	1382.21533	-1259.54199	1333.87207	1384.12842	-1228.63562	1165.43677	1464.55762	-1450.74011	1250.18799	1224.38916	-1289.39636	1370.29346	1150.83374	-1266.04285	1178.75220	1145.62927	-1230.55676	1060.67004	1170.44800	-1166.17224	950.74591	1223.32507	-1118.88184	851.62085	1168.33667	-1125.41943	844.01404	1194.35876	-1080.60938	778.20251	1536.56287	-1320.53162	1365.66370	1615.37878	-1339.99915	1146.76880	1634.22925	-1331.37903	1035.48560	1640.04883	-1316.30505	898.98279	1609.57019	-1284.18237	803.61206	1650.53320	-1319.19348	799.10315	1644.90698	-1293.13269	728.89636	1275.60681	-1297.19812	925.57843	1512.35583	-1295.68872	936.33258	1327.02979	-1453.69910	971.41754	1474.63611	-1452.55591	977.59595	1251.46570	-1407.44690	636.78961	1297.50806	-1437.15942	465.08344	1301.76917	-1518.24377	285.36600	1346.58472	-1553.52368	75.25754	1386.53723	-1594.88391	43.85365	1368.90198	-1403.40527	34.56526	1569.84839	-1291.94153	650.66418	1532.45276	-1215.69287	488.45108	1543.60828	-1225.09082	300.10599	1507.17786	-1214.37317	82.59127	1455.80493	-1253.51416	42.55087	1491.02283	-1073.55884	61.78261															 
49	0.480	1342.12390	-1179.36133	1604.84058	1472.80554	-1202.85144	1604.65186	1321.82837	-1311.43396	1580.98645	1451.37805	-1330.41382	1580.03967	1370.08484	-1369.36255	1418.06445	1381.71875	-1433.84119	1110.43250	1382.81885	-1253.68567	1332.79321	1384.85791	-1223.19434	1164.27551	1464.66223	-1445.15381	1249.26868	1225.17810	-1283.23096	1369.56201	1151.28247	-1258.37463	1178.68286	1145.56702	-1221.52344	1060.87646	1169.86328	-1155.40283	951.97382	1222.63245	-1106.06567	853.84375	1167.68347	-1113.09534	845.92316	1193.27161	-1066.83203	781.03003	1537.08130	-1315.10535	1364.51147	1615.55042	-1335.28357	1145.55493	1634.28955	-1327.20264	1034.20862	1640.20654	-1313.31763	897.62482	1609.81079	-1282.03552	801.91956	1650.74902	-1317.04517	797.65021	1645.32605	-1292.41333	727.57043	1276.06628	-1290.58105	924.97058	1512.78992	-1290.35242	935.20709	1326.88574	-1447.90247	970.17853	1474.56348	-1447.28772	976.08136	1251.94922	-1401.63354	636.05383	1297.13000	-1432.97717	464.76324	1301.24304	-1515.77136	285.57458	1346.72424	-1553.48254	75.53246	1386.04163	-1594.61438	44.63745	1368.75635	-1403.27026	34.29454	1569.50537	-1286.92664	649.06360	1531.68225	-1209.69434	487.52420	1542.56848	-1214.88147	299.32590	1505.77026	-1197.79175	82.19767	1453.82153	-1235.40857	41.38522	1490.60339	-1056.17322	64.52113															 
